<svg id="logo-ara" xmlns="http://www.w3.org/2000/svg" xmlns:xlink="http://www.w3.org/1999/xlink" width="312" height="235.685" viewBox="0 0 312 235.685">
  <defs>
    <clipPath id="clip-path">
      <rect id="Rect치ngulo_87" data-name="Rect치ngulo 87" width="312" height="235.685" fill="none"/>
    </clipPath>
    <clipPath id="clip-path-3">
      <path id="Trazado_103" data-name="Trazado 103" d="M263.83,165.683c0,.514-.073,1.916-.073,2.121.142.273.333.567.424.729,10.262,21.587,48.785,66.1,48.785,66.1-2.7-31.572-17.754-66.224-34.547-92.866-.759-1.33-1.813-2.969-2.694-4.321a45.363,45.363,0,0,0-11.9,28.237" transform="translate(-263.757 -137.446)" fill="none"/>
    </clipPath>
    <clipPath id="clip-path-4">
      <rect id="Rect치ngulo_85" data-name="Rect치ngulo 85" width="66.092" height="108.065" fill="none"/>
    </clipPath>
  </defs>
  <g id="content">
    <g id="Grupo_27" data-name="Grupo 27" clip-path="url(#clip-path)">
      <g id="Grupo_17" data-name="Grupo 17">
        <g id="Grupo_16" data-name="Grupo 16" clip-path="url(#clip-path)">
          <path id="Trazado_77" data-name="Trazado 77" d="M265.683,126.013c-.1-.172-.212-.344-.315-.524a36.077,36.077,0,0,1,6.923-4.154,8.172,8.172,0,0,0,.739-.378,51.9,51.9,0,0,0,23.536-24.334A70.059,70.059,0,0,0,312,52.277a69.5,69.5,0,0,0-19.593-48.55,9.466,9.466,0,0,0-16.979,5.258,52.5,52.5,0,0,1-24.8,41.864c-.162.1-.332.215-.5.334-2.051,1.272-4.019,2.648-5.908,4.092-.623-.722-1.292-1.481-2-2.213-.13-.139-.259-.272-.394-.391a50.7,50.7,0,0,0-23.394-13.8,38.441,38.441,0,0,0-17.81-1.1,37.479,37.479,0,0,0-19.04,8.9,36.108,36.108,0,0,0-17.86,31.122,35.682,35.682,0,0,0,3.781,16.061,9.474,9.474,0,0,0,15.636,1.9,9.541,9.541,0,0,0,1,.57,9.97,9.97,0,0,0,2.15.755v-.017c.192.047.385.076.576.107A18.405,18.405,0,0,0,200.7,94.551c-.079,1.229-.126,2.449-.126,3.691a51.924,51.924,0,0,0,1.667,13.075,20.553,20.553,0,0,0-10.4-3.833c-.3-.024-.623-.037-.931-.037H189.79a20.748,20.748,0,0,0-9.467,2.15,45.934,45.934,0,0,0-15.285-2.571,43.71,43.71,0,0,0-17.674,3.649,47.408,47.408,0,0,0-9.393,5.506,20.586,20.586,0,0,0-2.5-2.975,21.4,21.4,0,0,0-6.608-4.5c-5.03-2.167-10.55-1.968-16.186-.885a33.451,33.451,0,0,0-3.437.855,20.351,20.351,0,0,0-8.214-1.647,21.414,21.414,0,0,0-14.537,5.414,16.375,16.375,0,0,0-1.356,1.356,19.549,19.549,0,0,0-13.088-6.312c-.318-.024-.623-.037-.935-.037H70a20.767,20.767,0,0,0-9.474,2.15,45.918,45.918,0,0,0-15.285-2.571,43.746,43.746,0,0,0-17.677,3.649A46.226,46.226,0,0,0,3.649,134.695a44.728,44.728,0,0,0,0,35.388,46.268,46.268,0,0,0,9.7,14.321q1.357,1.347,2.816,2.591A14.182,14.182,0,0,0,13,187.28a12.078,12.078,0,0,0-2.449.74,9.462,9.462,0,0,0-5.248,5.58L.543,207.123a9.484,9.484,0,0,0,6.73,12.346h193.08a13.845,13.845,0,0,0,2.035-.736A13.348,13.348,0,0,0,207.232,215a13.758,13.758,0,0,0,2.677-5.225,17.172,17.172,0,0,0,.574-4.413,16.977,16.977,0,0,0-.6-4.493,14.186,14.186,0,0,0-2.558-5,13.2,13.2,0,0,0-3.95-3.294,19.043,19.043,0,0,0,3.069-3.548,23.7,23.7,0,0,0,3.154-7.081,28.215,28.215,0,0,0,.935-7.3v-5.514a19.3,19.3,0,0,0,10.092,2.836,18.125,18.125,0,0,0,2.724-.212c.205-.019.411-.053.557-.079a18.909,18.909,0,0,0,2.548-.61c.1-.037.225-.076.334-.113a19.11,19.11,0,0,0,2.041-.818,4.882,4.882,0,0,0,.557-.285,16.345,16.345,0,0,0,2.233-1.315c.073-.043.139-.1.205-.146a16.871,16.871,0,0,0,1.823-1.477c.086-.074.232-.2.311-.275a20.406,20.406,0,0,0,1.823-1.992c.033-.033.063-.076.1-.112.05-.073.122-.159.176-.235,12.144,23.088,47.347,63.875,48.9,65.658a9.461,9.461,0,0,0,7.155,3.287,9.268,9.268,0,0,0,3.678-.763,9.478,9.478,0,0,0,5.755-9.523c-2.514-29.421-15.6-64.753-35.859-96.947" transform="translate(0 0)" fill="#fff"/>
          <path id="Trazado_78" data-name="Trazado 78" d="M10.294,162.4a34.419,34.419,0,0,1,2.843-13.917A36.533,36.533,0,0,1,32.209,129.35,33.891,33.891,0,0,1,46.05,126.5a36.557,36.557,0,0,1,16.558,3.891,10.372,10.372,0,0,1,8.2-3.483h1.117c3.8.378,6.448,1.905,7.933,4.606a17.876,17.876,0,0,1,2.233,8.758v44.385a19.116,19.116,0,0,1-.633,4.871,13.718,13.718,0,0,1-1.886,4.245,9.066,9.066,0,0,1-3.267,2.988,9.5,9.5,0,0,1-4.652,1.113h-.845a10.581,10.581,0,0,1-8.2-3.334,29.521,29.521,0,0,1-7.869,2.843,41.067,41.067,0,0,1-8.689.905,33.908,33.908,0,0,1-13.841-2.853,36.54,36.54,0,0,1-19.072-19.129A34.355,34.355,0,0,1,10.294,162.4m22.529,0a13.086,13.086,0,0,0,3.834,9.662,12.752,12.752,0,0,0,9.393,3.827,12.878,12.878,0,0,0,9.6-3.827,14.311,14.311,0,0,0,0-19.331,12.877,12.877,0,0,0-9.6-3.83,12.751,12.751,0,0,0-9.393,3.83,13.083,13.083,0,0,0-3.834,9.669" transform="translate(-0.814 -10.003)" fill="#d31314"/>
          <path id="Trazado_79" data-name="Trazado 79" d="M97.166,139.155c0-4.45,1.106-7.67,3.34-9.662a11.814,11.814,0,0,1,8.2-2.992,9.83,9.83,0,0,1,7.237,2.774,22.872,22.872,0,0,1,6.19-2.158,33.943,33.943,0,0,1,6.329-.616,10.669,10.669,0,0,1,4.321.9,11.715,11.715,0,0,1,3.685,2.511,11.945,11.945,0,0,1,2.5,3.608,10.631,10.631,0,0,1-2.5,12.111,13.006,13.006,0,0,1-7.717,3.539,11.7,11.7,0,0,0-6.063,2.5,7.483,7.483,0,0,0-2.843,5.431v27.28q0,6.669-3.274,10a10.452,10.452,0,0,1-7.717,3.347,11.644,11.644,0,0,1-8.284-2.916q-3.132-2.933-3.406-10.3Z" transform="translate(-7.684 -10.003)" fill="#d31314"/>
          <path id="Trazado_80" data-name="Trazado 80" d="M140.379,162.4a34.361,34.361,0,0,1,2.847-13.917,37.219,37.219,0,0,1,7.717-11.415,36.722,36.722,0,0,1,11.346-7.717,33.963,33.963,0,0,1,13.85-2.85,36.58,36.58,0,0,1,16.548,3.891,10.408,10.408,0,0,1,8.2-3.483h1.124c3.8.378,6.445,1.905,7.929,4.606a17.786,17.786,0,0,1,2.22,8.758v44.385a19.1,19.1,0,0,1-.61,4.871,14.817,14.817,0,0,1-1.889,4.245,9.167,9.167,0,0,1-3.261,2.988,9.6,9.6,0,0,1-4.668,1.113h-.845a10.619,10.619,0,0,1-8.2-3.334,29.5,29.5,0,0,1-7.85,2.843,41.262,41.262,0,0,1-8.7.905,33.98,33.98,0,0,1-13.85-2.853,36.506,36.506,0,0,1-19.063-19.129,34.3,34.3,0,0,1-2.847-13.907m22.532,0a13.1,13.1,0,0,0,3.827,9.662,13.69,13.69,0,0,0,18.989,0,14.311,14.311,0,0,0,0-19.331,13.683,13.683,0,0,0-18.989,0,13.093,13.093,0,0,0-3.827,9.669" transform="translate(-11.101 -10.003)" fill="#d31314"/>
          <path id="Trazado_81" data-name="Trazado 81" d="M20.109,227.13l-1.167-3.357H14.214l-1.124,3.357h-2.8l4.752-13.523a5.217,5.217,0,0,1,.7-.192,5.552,5.552,0,0,1,.948-.087,3.187,3.187,0,0,1,.5.037,1.987,1.987,0,0,1,.54.176,1.83,1.83,0,0,1,.5.38,1.642,1.642,0,0,1,.368.669l4.41,12.538ZM16.6,215.887l-1.862,5.839h3.665Z" transform="translate(-0.814 -16.87)" fill="#d31314"/>
          <path id="Trazado_82" data-name="Trazado 82" d="M28.01,227.188a1.1,1.1,0,0,1-.392.07c-.192.019-.4.019-.636.019a3.273,3.273,0,0,1-.662-.063,1.771,1.771,0,0,1-.569-.272,1.506,1.506,0,0,1-.392-.528,2.211,2.211,0,0,1-.132-.838V212.631a2.1,2.1,0,0,1,.325-.056c.192-.017.388-.029.615-.029a3.716,3.716,0,0,1,.658.06,1.779,1.779,0,0,1,.592.239,1.5,1.5,0,0,1,.432.487,1.986,1.986,0,0,1,.162.832Z" transform="translate(-1.995 -16.808)" fill="#d31314"/>
          <path id="Trazado_83" data-name="Trazado 83" d="M35.433,225.716a3.077,3.077,0,0,0,.9-.109,2.593,2.593,0,0,0,.7-.279,2.341,2.341,0,0,0,.519-.357c.159-.133.3-.242.418-.352a5.723,5.723,0,0,1,.51.786,1.781,1.781,0,0,1,.272.788,1.02,1.02,0,0,1-.52.816,3.365,3.365,0,0,1-1.209.563,6.333,6.333,0,0,1-1.859.236,7.55,7.55,0,0,1-1.885-.239,4.033,4.033,0,0,1-1.663-.858,4.335,4.335,0,0,1-1.18-1.657,6.466,6.466,0,0,1-.448-2.6,5.879,5.879,0,0,1,.381-2.23,4.844,4.844,0,0,1,1.074-1.548,4.315,4.315,0,0,1,1.518-.9,5.19,5.19,0,0,1,1.709-.285,4.8,4.8,0,0,1,1.951.352,3.646,3.646,0,0,1,1.3.971,3.721,3.721,0,0,1,.726,1.379,5.755,5.755,0,0,1,.226,1.64v.288c0,.106,0,.222,0,.348s-.019.241-.019.357a2.21,2.21,0,0,1-.047.278H32.793a3.135,3.135,0,0,0,.693,1.869,2.373,2.373,0,0,0,1.948.745m.918-4.151a3,3,0,0,0-.384-1.594,1.444,1.444,0,0,0-1.358-.623,1.713,1.713,0,0,0-1.349.583,2.467,2.467,0,0,0-.494,1.634Z" transform="translate(-2.371 -17.199)" fill="#d31314"/>
          <path id="Trazado_84" data-name="Trazado 84" d="M50.087,226.71a9.8,9.8,0,0,1-.235,2.2,4.183,4.183,0,0,1-.821,1.709,3.657,3.657,0,0,1-1.555,1.1,6.341,6.341,0,0,1-2.4.394,9.453,9.453,0,0,1-2.024-.182,4.352,4.352,0,0,1-1.26-.458,1.185,1.185,0,0,1-.536-.454,1.4,1.4,0,0,1-.1-.49,1.555,1.555,0,0,1,.268-.763,7.26,7.26,0,0,1,.53-.795,2.743,2.743,0,0,0,.411.331,2.954,2.954,0,0,0,.617.358,5.48,5.48,0,0,0,.821.3,3.941,3.941,0,0,0,1.02.113,3.369,3.369,0,0,0,1.306-.212,1.765,1.765,0,0,0,.788-.613,2.436,2.436,0,0,0,.394-.974,6.668,6.668,0,0,0,.116-1.306V226.6a2.723,2.723,0,0,1-.914.65,3.821,3.821,0,0,1-1.611.291,5.07,5.07,0,0,1-1.462-.225,3.158,3.158,0,0,1-1.252-.815,3.738,3.738,0,0,1-.879-1.511,6.792,6.792,0,0,1-.334-2.324,7.36,7.36,0,0,1,.334-2.4,4.662,4.662,0,0,1,.9-1.611,3.321,3.321,0,0,1,1.292-.9,4.392,4.392,0,0,1,1.537-.281,3.17,3.17,0,0,1,1.491.311,2.386,2.386,0,0,1,.922.782,1.136,1.136,0,0,1,.616-.686,2.666,2.666,0,0,1,1.041-.2,2.192,2.192,0,0,1,.338.018,2.816,2.816,0,0,1,.344.036l.3.033Zm-6.246-4.2a4.984,4.984,0,0,0,.427,2.264,1.644,1.644,0,0,0,1.621.832,2.007,2.007,0,0,0,1.126-.275.856.856,0,0,0,.411-.736v-4.373a2.442,2.442,0,0,0-.564-.391,1.9,1.9,0,0,0-.934-.232c-1.392,0-2.088.978-2.088,2.913" transform="translate(-3.24 -17.198)" fill="#d31314"/>
          <path id="Trazado_85" data-name="Trazado 85" d="M55.933,218.734a3.443,3.443,0,0,1,.835-.819,3.217,3.217,0,0,1,.653-.311,2.254,2.254,0,0,1,.765-.116,5.032,5.032,0,0,1,.523.03,2.1,2.1,0,0,1,.5.162,1.032,1.032,0,0,1,.391.311.808.808,0,0,1,.135.483,2.9,2.9,0,0,1-.222,1.015q-.238.6-.44,1.007a4.377,4.377,0,0,0-.7-.437,2.05,2.05,0,0,0-.824-.156,1.5,1.5,0,0,0-1.057.371,1.088,1.088,0,0,0-.437.879v6.308h-2.79v-9.688l.255-.034a1.981,1.981,0,0,1,.275-.036,2.786,2.786,0,0,1,.388-.017,2.439,2.439,0,0,1,1.147.259,1.168,1.168,0,0,1,.6.788" transform="translate(-4.212 -17.199)" fill="#d31314"/>
          <path id="Trazado_86" data-name="Trazado 86" d="M64.059,227.183a.749.749,0,0,1-.361.069c-.192.013-.4.013-.613.013a2.233,2.233,0,0,1-1.3-.337,1.534,1.534,0,0,1-.5-1.356v-8.194a1.459,1.459,0,0,1,.321-.053c.2-.017.407-.033.613-.033a3.709,3.709,0,0,1,.666.066,1.576,1.576,0,0,1,.583.239,1.3,1.3,0,0,1,.435.491,1.808,1.808,0,0,1,.158.834ZM63.7,215.512a1.492,1.492,0,0,1-1.147.533,2.589,2.589,0,0,1-.67-.116,1.76,1.76,0,0,1-.583-.291l1.68-2.372a2.042,2.042,0,0,1,.59-.587,1.247,1.247,0,0,1,.718-.2,1.891,1.891,0,0,1,.839.232,3.538,3.538,0,0,1,.719.444Z" transform="translate(-4.846 -16.803)" fill="#d31314"/>
          <path id="Trazado_87" data-name="Trazado 87" d="M74.616,225.09a4.683,4.683,0,0,0,.471,2.356,3.384,3.384,0,0,1-.683.2,3.642,3.642,0,0,1-.669.066,1.816,1.816,0,0,1-1.114-.292,1.306,1.306,0,0,1-.48-.821,3.586,3.586,0,0,1-1.186.808,4.508,4.508,0,0,1-1.8.319,3.92,3.92,0,0,1-1.113-.156,2.866,2.866,0,0,1-1-.5,2.594,2.594,0,0,1-.735-.935,3.177,3.177,0,0,1-.292-1.418,2.651,2.651,0,0,1,.514-1.7,3.481,3.481,0,0,1,1.249-1.041,5.642,5.642,0,0,1,1.644-.517,12.685,12.685,0,0,1,1.611-.182,2.692,2.692,0,0,1,.483-.03h.45v-.357a1.284,1.284,0,0,0-.424-1.107,2.227,2.227,0,0,0-1.366-.338,3.977,3.977,0,0,0-1.567.3,11.188,11.188,0,0,0-1.342.643,3,3,0,0,1-.464-.763,1.9,1.9,0,0,1-.169-.635.723.723,0,0,1,.315-.524,3.073,3.073,0,0,1,.868-.5,7.043,7.043,0,0,1,1.276-.338,7.663,7.663,0,0,1,1.514-.146,6.757,6.757,0,0,1,1.875.232,2.965,2.965,0,0,1,1.246.693,2.684,2.684,0,0,1,.69,1.176,5.916,5.916,0,0,1,.2,1.65ZM72,222.707H71.72a1.89,1.89,0,0,0-.3.027,8.318,8.318,0,0,0-1.011.129,3.4,3.4,0,0,0-.874.288,1.6,1.6,0,0,0-.646.524,1.385,1.385,0,0,0-.242.832,1.5,1.5,0,0,0,.325.977,1.377,1.377,0,0,0,1.11.4,2.179,2.179,0,0,0,.723-.109,2.637,2.637,0,0,0,.616-.259,1.553,1.553,0,0,0,.431-.368A.537.537,0,0,0,72,224.8Z" transform="translate(-5.22 -17.198)" fill="#d31314"/>
          <path id="Trazado_88" data-name="Trazado 88" d="M90.344,225.09a4.688,4.688,0,0,0,.467,2.356,3.5,3.5,0,0,1-.68.2,3.612,3.612,0,0,1-.662.066,1.8,1.8,0,0,1-1.117-.292,1.283,1.283,0,0,1-.491-.821,3.559,3.559,0,0,1-1.182.808,4.517,4.517,0,0,1-1.8.319,3.92,3.92,0,0,1-1.116-.156,2.814,2.814,0,0,1-.995-.5,2.614,2.614,0,0,1-.749-.935,3.389,3.389,0,0,1-.272-1.418,2.713,2.713,0,0,1,.5-1.7,3.574,3.574,0,0,1,1.26-1.041,5.771,5.771,0,0,1,1.643-.517,12.575,12.575,0,0,1,1.611-.182,2.626,2.626,0,0,1,.491-.03h.43v-.357a1.3,1.3,0,0,0-.417-1.107,2.223,2.223,0,0,0-1.368-.338,3.978,3.978,0,0,0-1.564.3,11.319,11.319,0,0,0-1.336.643,3.036,3.036,0,0,1-.473-.763,2.424,2.424,0,0,1-.169-.635.723.723,0,0,1,.32-.524,3.014,3.014,0,0,1,.872-.5,7.038,7.038,0,0,1,1.269-.338,7.739,7.739,0,0,1,1.514-.146,6.75,6.75,0,0,1,1.876.232,2.909,2.909,0,0,1,1.246.693,2.719,2.719,0,0,1,.705,1.176,6.2,6.2,0,0,1,.186,1.65Zm-2.618-2.382h-.282a1.955,1.955,0,0,0-.3.027,7.871,7.871,0,0,0-1,.129,3.75,3.75,0,0,0-.9.288,1.861,1.861,0,0,0-.636.524,1.341,1.341,0,0,0-.239.832,1.468,1.468,0,0,0,.321.977,1.368,1.368,0,0,0,1.11.4,2.366,2.366,0,0,0,.743-.109,2.788,2.788,0,0,0,.6-.259,1.6,1.6,0,0,0,.431-.368.6.6,0,0,0,.149-.355Z" transform="translate(-6.464 -17.198)" fill="#d31314"/>
          <path id="Trazado_89" data-name="Trazado 89" d="M96.278,227.188a1.058,1.058,0,0,1-.4.07,6.189,6.189,0,0,1-.623.019,3.4,3.4,0,0,1-.666-.063,1.808,1.808,0,0,1-.564-.272,1.253,1.253,0,0,1-.387-.528,1.952,1.952,0,0,1-.146-.838V212.631a2.479,2.479,0,0,1,.332-.056c.185-.017.4-.029.61-.029a3.849,3.849,0,0,1,.659.06,1.614,1.614,0,0,1,.587.239,1.3,1.3,0,0,1,.437.487,1.874,1.874,0,0,1,.166.832Z" transform="translate(-7.393 -16.808)" fill="#d31314"/>
          <path id="Trazado_90" data-name="Trazado 90" d="M106.389,227.463h-2.8v-9.689l.232-.043c.089-.009.185-.017.295-.026a2.794,2.794,0,0,1,.4-.017,2.463,2.463,0,0,1,1.124.239,1.106,1.106,0,0,1,.606.821,3.4,3.4,0,0,1,1.07-.858,4.033,4.033,0,0,1,1.949-.4,3.01,3.01,0,0,1,1.713.4,2.731,2.731,0,0,1,.829.964,3.665,3.665,0,0,1,1.19-.951,3.917,3.917,0,0,1,1.918-.417,3.094,3.094,0,0,1,2.137.61,2.347,2.347,0,0,1,.815,1.478c.056.318.086.656.112,1.014q.03.576.029,1.093v5.779h-2.793V221.8c0-.282,0-.567-.019-.812a1.568,1.568,0,0,0-.159-.633.815.815,0,0,0-.4-.408,1.743,1.743,0,0,0-.763-.146,2.268,2.268,0,0,0-1.017.252,1.7,1.7,0,0,0-.67.517,10.791,10.791,0,0,1,.06,1.209v5.683h-2.79V221.8c0-.282,0-.57-.014-.825a1.425,1.425,0,0,0-.165-.666.993.993,0,0,0-.425-.435,1.77,1.77,0,0,0-.829-.152,1.993,1.993,0,0,0-1.17.315.937.937,0,0,0-.467.792Z" transform="translate(-8.192 -17.199)" fill="#d31314"/>
          <path id="Trazado_91" data-name="Trazado 91" d="M126.656,225.716a2.986,2.986,0,0,0,.894-.109,2.412,2.412,0,0,0,.7-.279,2.858,2.858,0,0,0,.54-.357c.149-.133.282-.242.408-.352a5.171,5.171,0,0,1,.513.786,1.745,1.745,0,0,1,.265.788.992.992,0,0,1-.51.816,3.478,3.478,0,0,1-1.219.563,6.31,6.31,0,0,1-1.852.236,7.482,7.482,0,0,1-1.889-.239,4.156,4.156,0,0,1-1.677-.858,4.471,4.471,0,0,1-1.159-1.657,6.283,6.283,0,0,1-.46-2.6,5.563,5.563,0,0,1,.4-2.23,4.448,4.448,0,0,1,1.064-1.548,4.186,4.186,0,0,1,1.511-.9,5.2,5.2,0,0,1,1.713-.285,4.833,4.833,0,0,1,1.949.352,3.683,3.683,0,0,1,1.3.971,3.617,3.617,0,0,1,.726,1.379,5.759,5.759,0,0,1,.232,1.64v.288a2.594,2.594,0,0,1-.017.348c0,.119-.017.241-.02.357a1.531,1.531,0,0,1-.03.278h-6.014a3.072,3.072,0,0,0,.693,1.869,2.372,2.372,0,0,0,1.945.745m.921-4.151a2.942,2.942,0,0,0-.384-1.594,1.46,1.46,0,0,0-1.359-.623,1.693,1.693,0,0,0-1.348.583,2.5,2.5,0,0,0-.5,1.634Z" transform="translate(-9.585 -17.199)" fill="#d31314"/>
          <path id="Trazado_92" data-name="Trazado 92" d="M132.457,217.388a1.316,1.316,0,0,1,.325-.053c.2-.017.411-.033.62-.033a4.424,4.424,0,0,1,.662.06,1.732,1.732,0,0,1,.584.239,1.3,1.3,0,0,1,.434.5,1.766,1.766,0,0,1,.159.829V227.3c0,.209-.006.417-.006.616a5.439,5.439,0,0,1-.435,1.939,3.609,3.609,0,0,1-.881,1.157,2.93,2.93,0,0,1-1.08.563,4.22,4.22,0,0,1-1.01.156c-.6,0-1-.171-1.173-.509a2.9,2.9,0,0,1-.272-1.329v-.172a4.273,4.273,0,0,0,1.041-.186,1.466,1.466,0,0,0,.643-.407,1.637,1.637,0,0,0,.314-.657,5.555,5.555,0,0,0,.076-.921Zm2.813-3.277a1.368,1.368,0,0,1-.444,1.064,1.525,1.525,0,0,1-1.061.414,1.555,1.555,0,0,1-1.07-.414,1.444,1.444,0,0,1-.414-1.064,1.469,1.469,0,0,1,.414-1.07,1.5,1.5,0,0,1,1.07-.431,1.469,1.469,0,0,1,1.061.431,1.391,1.391,0,0,1,.444,1.07" transform="translate(-10.31 -16.813)" fill="#d31314"/>
          <path id="Trazado_93" data-name="Trazado 93" d="M147.264,222.565a7.394,7.394,0,0,1-.25,1.972,4.553,4.553,0,0,1-.842,1.654,4.163,4.163,0,0,1-1.5,1.147,5.218,5.218,0,0,1-2.224.43,5.449,5.449,0,0,1-2.237-.417,4.141,4.141,0,0,1-1.477-1.124,4.539,4.539,0,0,1-.835-1.64,7.087,7.087,0,0,1-.275-1.958,6.018,6.018,0,0,1,.319-1.978,4.77,4.77,0,0,1,.905-1.637,4.248,4.248,0,0,1,1.531-1.124,5.38,5.38,0,0,1,2.141-.4,5.509,5.509,0,0,1,2.2.4A4.042,4.042,0,0,1,146.192,219a4.536,4.536,0,0,1,.821,1.624,7.122,7.122,0,0,1,.25,1.941m-2.8.02a6.674,6.674,0,0,0-.087-1.093,2.909,2.909,0,0,0-.3-.951,2,2,0,0,0-.607-.669,1.823,1.823,0,0,0-.991-.259,1.714,1.714,0,0,0-1,.275,1.919,1.919,0,0,0-.623.68,3.186,3.186,0,0,0-.344.95,5.682,5.682,0,0,0-.11,1.1,7.108,7.108,0,0,0,.093,1.1,3.511,3.511,0,0,0,.321.987,1.971,1.971,0,0,0,.623.716,2.082,2.082,0,0,0,2.01,0,1.971,1.971,0,0,0,.623-.716,3.251,3.251,0,0,0,.3-.987,7.175,7.175,0,0,0,.087-1.134" transform="translate(-10.883 -17.199)" fill="#d31314"/>
          <path id="Trazado_94" data-name="Trazado 94" d="M152.725,218.734a2.976,2.976,0,0,1,.838-.819,3.016,3.016,0,0,1,.64-.311,2.262,2.262,0,0,1,.774-.116,4.878,4.878,0,0,1,.518.03,2.346,2.346,0,0,1,.513.162.908.908,0,0,1,.375.311.807.807,0,0,1,.149.483,2.769,2.769,0,0,1-.239,1.015,6.66,6.66,0,0,1-.444,1.007,3.692,3.692,0,0,0-.69-.437,1.993,1.993,0,0,0-.821-.156,1.562,1.562,0,0,0-1.066.371,1.105,1.105,0,0,0-.428.879v6.308h-2.787v-9.688l.249-.034a2.061,2.061,0,0,1,.288-.036,2.646,2.646,0,0,1,.385-.017,2.442,2.442,0,0,1,1.143.259,1.165,1.165,0,0,1,.6.788" transform="translate(-11.866 -17.199)" fill="#d31314"/>
          <path id="Trazado_95" data-name="Trazado 95" d="M164.726,218.682a3.738,3.738,0,0,1,1.028-.792,3.551,3.551,0,0,1,1.765-.4,4.469,4.469,0,0,1,1.452.241,3.4,3.4,0,0,1,1.216.839,4.283,4.283,0,0,1,.838,1.517,7.247,7.247,0,0,1,.319,2.313,8,8,0,0,1-.362,2.641,4.549,4.549,0,0,1-.954,1.634,3.309,3.309,0,0,1-1.319.851,4.435,4.435,0,0,1-1.425.242,3.627,3.627,0,0,1-1.02-.129,3.843,3.843,0,0,1-.749-.3,1.955,1.955,0,0,1-.484-.328c-.106-.116-.179-.18-.192-.226v5.149h-2.761V217.774l.236-.043c.073-.009.166-.017.292-.026.1-.01.239-.01.39-.01a2.674,2.674,0,0,1,1.143.215,1.066,1.066,0,0,1,.587.772m3.721,3.784a5.94,5.94,0,0,0-.12-1.153,2.526,2.526,0,0,0-.334-.921,1.485,1.485,0,0,0-.633-.6,1.9,1.9,0,0,0-.972-.218,1.738,1.738,0,0,0-1.2.321,1.033,1.033,0,0,0-.342.725v4.338a2.651,2.651,0,0,0,.577.39,2.016,2.016,0,0,0,.984.222,1.664,1.664,0,0,0,1.537-.815,4.5,4.5,0,0,0,.5-2.293" transform="translate(-12.817 -17.199)" fill="#d31314"/>
          <path id="Trazado_96" data-name="Trazado 96" d="M176.764,218.734a3.481,3.481,0,0,1,.342-.407,3.531,3.531,0,0,1,.5-.412,3.2,3.2,0,0,1,.64-.311,2.326,2.326,0,0,1,.774-.116,4.868,4.868,0,0,1,.53.03,2.315,2.315,0,0,1,.5.162.853.853,0,0,1,.371.311.735.735,0,0,1,.159.483,2.958,2.958,0,0,1-.236,1.015,6.815,6.815,0,0,1-.45,1.007,3.592,3.592,0,0,0-.693-.437,2.023,2.023,0,0,0-.811-.156,1.525,1.525,0,0,0-1.067.371,1.118,1.118,0,0,0-.437.879v6.308h-2.793v-9.688l.245-.034a2.711,2.711,0,0,1,.3-.036,2.591,2.591,0,0,1,.378-.017,2.408,2.408,0,0,1,1.15.259,1.125,1.125,0,0,1,.6.788" transform="translate(-13.767 -17.199)" fill="#d31314"/>
          <path id="Trazado_97" data-name="Trazado 97" d="M186.772,225.716a3.211,3.211,0,0,0,.914-.109,2.665,2.665,0,0,0,.69-.279,2.612,2.612,0,0,0,.533-.357c.149-.133.288-.242.411-.352a5.709,5.709,0,0,1,.514.786,1.833,1.833,0,0,1,.275.788,1.012,1.012,0,0,1-.53.816,3.451,3.451,0,0,1-1.209.563,6.324,6.324,0,0,1-1.866.236,7.61,7.61,0,0,1-1.882-.239,4.036,4.036,0,0,1-1.657-.858,4.4,4.4,0,0,1-1.18-1.657,6.564,6.564,0,0,1-.46-2.6,5.741,5.741,0,0,1,.4-2.23,4.407,4.407,0,0,1,1.067-1.548,4.211,4.211,0,0,1,1.5-.9,5.247,5.247,0,0,1,1.723-.285,4.811,4.811,0,0,1,1.949.352,3.57,3.57,0,0,1,1.292.971,3.729,3.729,0,0,1,.729,1.379,5.89,5.89,0,0,1,.228,1.64v.288c0,.106-.013.222-.017.348s-.006.241-.017.357a.773.773,0,0,1-.037.278h-6.014a3.227,3.227,0,0,0,.693,1.869,2.391,2.391,0,0,0,1.941.745m.928-4.151a3.028,3.028,0,0,0-.375-1.594,1.47,1.47,0,0,0-1.362-.623,1.719,1.719,0,0,0-1.358.583,2.543,2.543,0,0,0-.483,1.634Z" transform="translate(-14.339 -17.199)" fill="#d31314"/>
          <path id="Trazado_98" data-name="Trazado 98" d="M197.619,225.706a3.235,3.235,0,0,0,.825-.106,3.467,3.467,0,0,0,.657-.255,3.353,3.353,0,0,0,.49-.328,2.371,2.371,0,0,0,.311-.3,1.954,1.954,0,0,1,.242.321,3.224,3.224,0,0,1,.226.411,2.238,2.238,0,0,1,.172.421,1.2,1.2,0,0,1,.056.358,1.183,1.183,0,0,1-.08.4,1.317,1.317,0,0,1-.351.405,4.138,4.138,0,0,1-1.113.53,5.812,5.812,0,0,1-1.819.238,7.717,7.717,0,0,1-1.594-.2,4.173,4.173,0,0,1-1.6-.786,4.288,4.288,0,0,1-1.236-1.587,6.132,6.132,0,0,1-.487-2.654,5.364,5.364,0,0,1,.51-2.532,4.611,4.611,0,0,1,1.269-1.567,4.547,4.547,0,0,1,1.611-.782,6.118,6.118,0,0,1,1.524-.222,6.49,6.49,0,0,1,1.577.185,4.29,4.29,0,0,1,1.17.491,1.778,1.778,0,0,1,.544.477.938.938,0,0,1,.159.53,2.123,2.123,0,0,1-.18.705,4.261,4.261,0,0,1-.477.772,3.844,3.844,0,0,0-.974-.693,2.761,2.761,0,0,0-1.405-.351,2.163,2.163,0,0,0-1.921.828,3.579,3.579,0,0,0-.57,2.118,6.218,6.218,0,0,0,.106,1.232,3.071,3.071,0,0,0,.424,1,2.132,2.132,0,0,0,.773.68,2.569,2.569,0,0,0,1.159.245" transform="translate(-15.208 -17.198)" fill="#d31314"/>
          <path id="Trazado_99" data-name="Trazado 99" d="M205.593,214.111a1.361,1.361,0,0,1-.427,1.06,1.49,1.49,0,0,1-1.053.417,1.51,1.51,0,0,1-1.067-.417,1.378,1.378,0,0,1-.434-1.06,1.408,1.408,0,0,1,.434-1.07,1.465,1.465,0,0,1,1.067-.431,1.446,1.446,0,0,1,1.053.431,1.391,1.391,0,0,1,.427,1.07m0,13.082a.9.9,0,0,1-.365.07c-.192.019-.4.019-.616.019a2.292,2.292,0,0,1-1.3-.334,1.522,1.522,0,0,1-.514-1.366v-8.194a1.256,1.256,0,0,1,.335-.056c.189-.013.4-.029.619-.029a3.363,3.363,0,0,1,.65.065,1.684,1.684,0,0,1,.593.232,1.4,1.4,0,0,1,.427.5,1.828,1.828,0,0,1,.172.829Z" transform="translate(-16.022 -16.813)" fill="#d31314"/>
          <path id="Trazado_100" data-name="Trazado 100" d="M217.456,222.565a7.4,7.4,0,0,1-.259,1.972,4.36,4.36,0,0,1-.842,1.654,4.122,4.122,0,0,1-1.51,1.147,5.231,5.231,0,0,1-2.227.43,5.4,5.4,0,0,1-2.224-.417,4.171,4.171,0,0,1-1.481-1.124,4.7,4.7,0,0,1-.848-1.64,7.6,7.6,0,0,1-.255-1.958,6.288,6.288,0,0,1,.3-1.978,4.628,4.628,0,0,1,.908-1.637,4.285,4.285,0,0,1,1.538-1.124,5.352,5.352,0,0,1,2.14-.4,5.509,5.509,0,0,1,2.194.4A4.041,4.041,0,0,1,216.372,219a4.441,4.441,0,0,1,.825,1.624,7.122,7.122,0,0,1,.259,1.941m-2.807.02a8.009,8.009,0,0,0-.086-1.093,3.4,3.4,0,0,0-.3-.951,2.182,2.182,0,0,0-.616-.669,1.849,1.849,0,0,0-1-.259,1.712,1.712,0,0,0-.987.275,1.954,1.954,0,0,0-.636.68,3.6,3.6,0,0,0-.332.95,5.68,5.68,0,0,0-.112,1.1,7.878,7.878,0,0,0,.1,1.1,3.106,3.106,0,0,0,.332.987,1.654,1.654,0,0,0,1.611.974,1.832,1.832,0,0,0,1.013-.259,2.2,2.2,0,0,0,.63-.716,3.825,3.825,0,0,0,.3-.987,8.611,8.611,0,0,0,.086-1.134" transform="translate(-16.433 -17.199)" fill="#d31314"/>
          <path id="Trazado_101" data-name="Trazado 101" d="M278.419,141.768h0c-.752-1.325-1.812-2.969-2.694-4.314a45.354,45.354,0,0,0-11.9,28.231c0,.517-.037,1.528-.06,1.524-.007.2-.014.391-.014.6.14.272.335.573.425.736,10.262,21.577,48.785,66.092,48.785,66.092-2.7-31.575-17.747-66.224-34.547-92.866" transform="translate(-20.857 -10.87)" fill="#a3c800"/>
        </g>
      </g>
      <g id="Grupo_24" data-name="Grupo 24" transform="translate(242.9 126.577)">
        <g id="Grupo_23" data-name="Grupo 23" clip-path="url(#clip-path-3)">
          <g id="Grupo_22" data-name="Grupo 22" transform="translate(-13.997 10.079)" style="mix-blend-mode: multiply;isolation: isolate">
            <g id="Grupo_21" data-name="Grupo 21">
              <g id="Grupo_20" data-name="Grupo 20" clip-path="url(#clip-path-4)">
                <g id="Grupo_19" data-name="Grupo 19">
                  <g id="Grupo_18" data-name="Grupo 18" clip-path="url(#clip-path-4)">
                    <path id="Trazado_102" data-name="Trazado 102" d="M266.1,149.415s-8.383,23.861,20.04,47.387c28.491,23.559,30.154,59.283,27.718,58.816l-7.983.835-55.713-50.909-1.6-34.889s2.866-27.883,17.542-21.239" transform="translate(-248.558 -148.391)" fill="#5ea300"/>
                  </g>
                </g>
              </g>
            </g>
          </g>
        </g>
      </g>
      <g id="Grupo_26" data-name="Grupo 26">
        <g id="Grupo_25" data-name="Grupo 25" clip-path="url(#clip-path)">
          <path id="Trazado_104" data-name="Trazado 104" d="M259.253,71.516a44.992,44.992,0,0,0-5.992-7.926h-.013a41.23,41.23,0,0,0-26.833-12.846A18.226,18.226,0,0,1,235.707,77.9,42.159,42.159,0,0,0,246.7,137.324a61.976,61.976,0,0,1,12.552-65.807" transform="translate(-17.905 -4.013)" fill="#db2105"/>
          <path id="Trazado_105" data-name="Trazado 105" d="M259.968,73.3a55.712,55.712,0,0,0-24.334,46.068,57.873,57.873,0,0,0,.725,8.929,42.6,42.6,0,0,0,11.091,10.829A61.947,61.947,0,0,1,259.968,73.3" transform="translate(-18.634 -5.796)" fill="#82c9e9"/>
          <path id="Trazado_106" data-name="Trazado 106" d="M304.289,10.29A61.935,61.935,0,0,1,275.027,59.7a.049.049,0,0,0,.023.01,61.976,61.976,0,0,0-15.866,91.908,64.024,64.024,0,0,1,25.027-80.247v.033A50.379,50.379,0,0,0,304.289,10.29" transform="translate(-19.403 -0.814)" fill="#ffbc00"/>
          <path id="Trazado_107" data-name="Trazado 107" d="M309.054,99.677a60.719,60.719,0,0,1-21.992,16.6c-.093.043-.2.087-.292.119-.239.107-.471.215-.709.319l.017.01a42.2,42.2,0,0,0-24.185,38.162,41.663,41.663,0,0,0,.444,6.067A45.633,45.633,0,0,1,289.093,120.6c-.016,0-.016-.01-.016-.01a42.3,42.3,0,0,0,19.977-20.909" transform="translate(-20.71 -7.882)" fill="#db2105"/>
          <path id="Trazado_108" data-name="Trazado 108" d="M223.787,69.076a4.269,4.269,0,1,1-4.271-4.265,4.254,4.254,0,0,1,4.271,4.265" transform="translate(-17.021 -5.125)" fill="#181515"/>
          <path id="Trazado_109" data-name="Trazado 109" d="M199.128,68.633a18.239,18.239,0,0,1,2.618-9.417,26.614,26.614,0,0,0-10.9,35.094c-.007-.176-.02-.349-.02-.528a8.9,8.9,0,0,1,5.538-8.247,22.085,22.085,0,0,1,6.915-1.1c2.859-.136,3.558-.735,3.672-.852a18.207,18.207,0,0,1-7.82-14.954" transform="translate(-14.872 -4.683)" fill="#fa8c0b"/>
          <path id="Trazado_110" data-name="Trazado 110" d="M210.589,87.2a6.025,6.025,0,0,1-1.159,2.465c-1.849,2.055-5.374,2.042-4.961,5.047l.006.006.01-.036A9.161,9.161,0,0,0,206.8,95a8.9,8.9,0,0,0,5.8-2.147c.037-.043.066-.07.093-.1a3.271,3.271,0,0,0,.251-.228c.14-.136.283-.272.412-.425a.109.109,0,0,0,.056-.059c.125-.15.268-.309.388-.461.086-.1.159-.2.232-.3l.033-.04a9.013,9.013,0,0,0,1.232-2.478,18.084,18.084,0,0,1-4.7-1.567" transform="translate(-16.166 -6.895)" fill="#fa8c0b"/>
          <path id="Trazado_111" data-name="Trazado 111" d="M221.278,67.666a1.523,1.523,0,1,1-1.528-1.537,1.526,1.526,0,0,1,1.528,1.537" transform="translate(-17.257 -5.229)" fill="#fff"/>
          <path id="Trazado_112" data-name="Trazado 112" d="M257.1,147.861h0a.112.112,0,0,0-.033-.04l.033.04m1.335,1.856c-.454-.613-.9-1.239-1.335-1.856,0,0,.55.792,1.335,1.856m1.471,1.9c-.5-.61-.971-1.232-1.441-1.862.421.573.921,1.223,1.441,1.862M305.137,10.5a1.255,1.255,0,0,1-.126-.215,50.362,50.362,0,0,1-8.854,51.5v.01a.148.148,0,0,0-.063.079c-.918,1.047-1.875,2.041-2.873,3.019-.049.046-.1.083-.135.122l-.006.013q-1.446,1.4-2.983,2.668h-.019l-.006.01v.006c-.616.51-1.24.981-1.879,1.458-.017.006-.017.017-.017.017l-.023.013c-.389.282-.779.58-1.181.852-.073.063-.162.112-.235.166-.6.411-1.193.8-1.8,1.193v-.033c-.53.325-1.037.653-1.558.988-.158.112-.318.228-.477.338-.218.139-.43.274-.635.417-.136.106-.285.2-.431.3-.172.135-.355.251-.53.378-.328.245-.669.487-1.008.735-.162.12-.324.246-.5.375-.394.3-.782.62-1.183.922-.086.069-.171.148-.271.225-.471.375-.948.772-1.405,1.167-.139.1-.265.218-.391.332-.341.291-.669.589-.994.884-.169.143-.311.3-.477.431-.3.288-.6.573-.9.868-.158.146-.315.292-.46.441-.328.315-.646.633-.951.948-.119.126-.239.239-.355.355-.434.444-.858.9-1.269,1.352-.069.083-.139.166-.218.252-.332.37-.659.742-1,1.123-.136.166-.262.321-.4.477a.814.814,0,0,1-.1.123c-.232.274-.464.569-.69.851-.133.159-.265.319-.39.484-.186.235-.375.463-.544.7-.083.109-.166.215-.255.327-.112.143-.235.292-.347.445a1.449,1.449,0,0,1-.113.162q-1.043,1.417-2.014,2.876c-.107.156-.212.309-.311.474s-.215.341-.329.52-.249.394-.38.586c-.11.18-.219.358-.319.537-.166.262-.3.5-.454.773-.063.1-.126.208-.189.321-.1.172-.209.344-.308.514-.134.264-.279.517-.428.778-.106.182-.205.368-.3.55-.059.106-.116.2-.165.309-.3.546-.577,1.116-.845,1.667-.07.139-.149.288-.212.444-.2.411-.4.832-.6,1.24-.083.208-.179.4-.262.593-.172.38-.345.778-.491,1.156-.093.2-.172.408-.249.6-.156.355-.295.719-.437,1.08a.854.854,0,0,1-.083.209c-.049.156-.112.3-.175.467-.222.57-.421,1.167-.63,1.763-.04.106-.073.219-.1.312-.053.162-.106.321-.153.483-.112.338-.222.662-.331.994-.053.206-.11.408-.18.616-.116.4-.239.812-.344,1.22-.06.215-.126.434-.18.652-.112.431-.228.862-.318,1.3-.046.192-.1.378-.142.56-.143.617-.282,1.22-.4,1.839-.179.918-.332,1.843-.49,2.784-.02.205-.066.424-.087.643q-.413,2.783-.564,5.646c-.017.239-.033.467-.033.7-.04.955-.073,1.906-.073,2.87a64.026,64.026,0,0,0,5.4,25.766s1.154,2.627,2.237,4.58c0,0-.209-1.1-.39-2.406v.107c-.037-.265-.074-.527-.09-.792-.032-.156-.049-.311-.073-.461-.086-.7-.146-1.388-.2-2.09-.013-.162-.013-.332-.02-.5-.036-.741-.066-1.481-.066-2.23,0-.593,0-1.18.03-1.769.01-.18.036-.372.043-.557.013-.411.046-.815.079-1.209.013-.212.037-.425.053-.633.04-.385.092-.766.148-1.147a4.668,4.668,0,0,1,.064-.61c.066-.431.133-.858.2-1.286.027-.146.043-.279.07-.418.1-.566.218-1.12.325-1.663a4.735,4.735,0,0,0,.125-.46c.089-.4.2-.8.295-1.2.064-.2.116-.407.173-.612q.163-.518.308-1.024c.073-.209.136-.425.205-.63.112-.351.226-.693.352-1.031.073-.192.132-.38.192-.573.2-.483.391-.968.587-1.449l.159-.361c.189-.413.361-.821.543-1.219.093-.2.2-.4.288-.606.153-.288.3-.59.457-.891l.321-.634c.173-.281.312-.556.468-.841.116-.2.232-.411.361-.613.182-.295.371-.6.556-.891a5.24,5.24,0,0,1,.312-.517c.281-.437.573-.865.871-1.3a6.787,6.787,0,0,1,.411-.547c.186-.269.375-.518.56-.779.149-.2.311-.4.471-.6.176-.236.355-.461.551-.683.162-.212.328-.414.49-.6.2-.226.4-.46.593-.68.172-.189.331-.374.5-.556.279-.292.553-.583.842-.875.212-.228.444-.457.686-.676s.473-.473.712-.693a7.38,7.38,0,0,1,.574-.514c.2-.2.437-.4.649-.577.192-.179.4-.344.6-.517.219-.186.448-.378.68-.553.2-.156.4-.321.6-.477.269-.2.53-.4.795-.6.173-.122.339-.251.518-.378.43-.292.848-.587,1.3-.878.189-.12.371-.226.553-.352.285-.175.559-.351.848-.53.2-.116.411-.235.616-.351l.848-.483c.2-.113.414-.213.616-.325.319-.169.636-.338.958-.487.172-.092.351-.175.52-.258.033-.014.073-.037.11-.056l-.017-.014c.238-.1.471-.212.709-.308.092-.043.2-.087.291-.136A60.539,60.539,0,0,0,307.4,93.85c.089-.152.192-.3.282-.45a60.215,60.215,0,0,0,14.97-40.306,60.367,60.367,0,0,0-17.519-42.6" transform="translate(-20.126 -0.813)" fill="#fa8c0b"/>
          <path id="Trazado_113" data-name="Trazado 113" d="M248.635,164.846a9.921,9.921,0,1,1-9.917-9.921,9.919,9.919,0,0,1,9.917,9.921" transform="translate(-18.093 -12.251)" fill="#fa8c0b"/>
          <path id="Trazado_114" data-name="Trazado 114" d="M230.036,160.474a10.061,10.061,0,0,0-.689,3.628,9.909,9.909,0,0,0,18.589,4.794,9.913,9.913,0,1,1-17.9-8.423" transform="translate(-18.093 -12.69)" fill="#db2105"/>
        </g>
      </g>
    </g>
  </g>
</svg>
